<?xml version="1.0" encoding="UTF-8"?>
<svg viewBox="0 0 120 69" xml:space="preserve" xmlns="http://www.w3.org/2000/svg">
  <path d="m29.322 0c-0.99324 1.9583e-17 -2.0597 0.097482-2.3699 0.21652-0.83032 0.31862-1.6313 2.0848-1.387 3.0582 0.11618 0.4629 0.038307 1.1646-0.17312 1.5596-0.44444 0.83045-0.41584 0.83823-4.9671-1.2971-5.0051-2.3482-10.735-2.7655-10.735-0.78135 0 0.63929-0.19466 0.672-3.0489 0.51056-3.4809-0.19689-6.4578 0.3912-6.6337 1.3105-0.067811 0.35442 0.39217 0.87103 1.2154 1.3648 0.72849 0.43691 2.3123 1.4872 3.5197 2.3342 1.7886 1.2547 2.1194 1.6317 1.7865 2.033-0.22479 0.27085-0.70318 0.49248-1.063 0.49248-1.0375 0-0.77643 0.53773 0.9958 2.0526 2.9552 2.5261 5.3378 3.4736 9.4997 3.7775 2.0122 0.14692 3.6587 0.41774 3.6587 0.60203 0 0.18429-0.47052 0.57646-1.0454 0.87126-0.5749 0.29479-1.1604 0.69255-1.3012 0.88418-1.1941 1.6253 1.434 5.2727 5.147 7.1427 2.0207 1.0177 2.4737 1.4079 2.7373 2.3585 0.39866 1.438 2.7078 3.5646 3.8706 3.5646 0.74823 0 0.8708-0.15842 0.8754-1.1322 0.006659-1.4132 0.28494-1.8371 1.3885-2.1167 1.4718-0.3728 3.1357-1.5811 3.1357-2.2769 0-0.362-0.23382-1.3214-0.51986-2.1322-0.62196-1.7628-0.38285-2.992 0.72295-3.7166 0.82909-0.54324 2.7222-0.3975 3.1161 0.23978 0.10518 0.17017-0.19126 0.90299-0.65887 1.6283-1.3292 2.0618-1.4315 2.7623-0.49248 3.3776 0.44479 0.29144 1.3404 0.5748 1.9901 0.62942 1.067 0.08965 1.2097-0.009221 1.479-1.018 0.35303-1.3228 1.463-2.1931 2.7962-2.1931 1.2772 0 5.7354 3.0024 8.7421 5.887 3.1869 3.0575 6.1543 8.546 6.7066 12.405 0.34758 2.429 0.88162 4.4397 1.3296 5.0059 0.47491 0.60018 4.0258 0.30514 4.454-0.37 0.15875-0.2503 0.29104-1.167 0.29404-2.0376 0.019259-5.7151 6.029-16.604 10.794-19.556l0.85886-0.53227-0.65836-1.0108c-1.126-1.7295-1.5758-1.8995-3.0453-1.1498-0.7174 0.36599-1.845 1.1402-2.5058 1.7203-1.3159 1.1554-1.4525 1.0929-1.5493-0.71055-0.088238-1.6437-0.99654-4.1173-2.1187-5.7697-0.75266-1.1083-1.2014-1.4054-2.4407-1.617-0.83506-0.14252-1.6528-0.17564-1.8175-0.073897-0.54882 0.33919-0.30863 1.538 0.57568 2.8742 2.6116 3.9464 2.9721 9.3586 0.95498 14.342-0.58171 1.4373-1.1648 2.9266-1.2955 3.3099-0.22881 0.67079-0.26407 0.66424-0.94516-0.17105-0.38916-0.47725-1.1034-1.6528-1.587-2.6128-0.48354-0.95999-1.1725-2.162-1.5312-2.6706-0.82508-1.1701-0.82066-1.9301 0.01912-3.3073 0.72743-1.193 2.344-1.9033 4.0323-1.772 0.8835 0.06871 1.0603-0.053883 1.14-0.79013 0.051852-0.47908-0.22319-1.3847-0.61082-2.0128-0.67739-1.0976-0.76912-1.1336-2.359-0.91984-2.1354 0.28709-3.487 0.99401-4.8111 2.5166l-1.0661 1.2263-0.76274-0.81907c-0.41972-0.45051-0.76326-1.0072-0.76326-1.2366s-0.23411-0.86601-0.52038-1.4149c-0.28627-0.5489-0.52186-1.3341-0.52296-1.7451-0.00403-1.403-1.4121-5.3162-2.2872-6.3562-1.7107-2.0331-4.7546-2.1659-5.8151-0.25322-0.85077 1.5343 0.31464 3.1668 2.0309 2.8448 1.3576-0.25468 1.8804 0.29956 2.1451 2.2732 0.18762 1.3988 0.1665 1.4382-0.64079 1.187-0.45934-0.14288-2.4657-1.0624-4.4581-2.0433-4.0244-1.9812-5.2394-3.1367-4.5842-4.361 0.34308-0.64105 0.6773-0.74009 2.3249-0.68626 1.6274 0.053176 2.0568-0.069286 2.7817-0.79427 0.82616-0.82616 0.83787-0.90304 0.32711-2.1255-0.61964-1.483-0.45261-2.1376 0.91881-3.6008 1.1626-1.2404 1.0669-1.7595-0.52452-2.8458-1.3453-0.91831-3.1886-1.015-4.9919-0.26148-1.816 0.75876-2.4056 0.65919-3.8649-0.65319-2.0537-1.8469-3.8492-2.6567-5.8906-2.6567zm61.616 0.26613c-2.7281 0.017077-3.5943 0.36047-5.1645 2.0459-1.1618 1.247-1.8055 1.3755-4.1341 0.82734-0.76653-0.18044-2.2406-0.23063-3.2758-0.11162-1.6015 0.18411-2.0843 0.42455-3.2375 1.6128-1.9382 1.9972-1.6745 2.5411 1.5482 3.1926 0.84355 0.17052 0.95808 0.35266 0.95808 1.5203 0 1.9056 1.1748 2.9112 3.6396 3.1156 1.2578 0.10431 2.1012 0.37699 2.4877 0.80409 0.53722 0.59356 0.53976 0.71466 0.030489 1.4919-0.30489 0.46533-1.2155 1.2141-2.0236 1.664-0.80818 0.44984-1.5237 0.98539-1.5901 1.1901-0.066351 0.20472 0.2426 0.91024 0.68678 1.5679 0.80725 1.1952 0.80885 1.196 3.2406 1.0775 2.0115-0.098074 2.5786-7.26e-4 3.2758 0.56379 0.78848 0.63847 0.81598 0.77305 0.42581 2.0753-0.22948 0.76594-0.41703 1.649-0.41703 1.9622 0 0.83577 1.2695 1.9632 2.2107 1.9632 1.2175 0 2.048 1.1132 1.9218 2.5771-0.078381 0.90979 0.075534 1.3775 0.58033 1.7591 0.37808 0.28581 0.70359 0.52482 0.72295 0.53072 0.019308 0.006094 0.52458-0.15987 1.1229-0.36845 1.1499-0.40086 2.5001-2.2053 2.5001-3.3409 0-1.2227 0.86716-1.8986 3.3011-2.5735 2.8986-0.80377 4.0026-1.7767 4.8524-4.2767 0.78879-2.3205 0.44331-3.164-1.5389-3.7579-2.5371-0.76014-1.7293-1.1863 2.7931-1.4738 1.4748-0.093768 3.3044-0.46471 4.1997-0.85111 2.1542-0.92962 5.5557-4.2658 5.5557-5.4488 0-0.10843-0.30397-0.19689-0.67593-0.19689-1.2812 0-1.0592-0.62906 0.5979-1.6924 1.8626-1.1952 4.7193-4.1171 4.4504-4.5522-0.09635-0.15591-1.8185-0.35668-3.8266-0.44597-3.2922-0.14642-3.7896-0.25826-5.0596-1.1384-1.3798-0.95621-1.4798-0.97195-4.8943-0.75758-3.9519 0.24812-6.6316 1.0544-8.7964 2.6464l-1.4609 1.0744-0.35863-1.4547c-0.53202-2.157-1.6572-2.8398-4.6483-2.821zm-28.693 0.029456c-1.9618 0.0152-2.5564 0.50328-2.9332 2.4086-0.31682 1.6021 0.28419 2.1735 2.2846 2.1735 1.183 0 1.982 0.2374 2.8319 0.84129 1.477 1.0495 1.4202 1.0451 2.3373 0.19069 0.95028-0.88529 0.95657-1.4631 0.033073-3.1063-0.98198-1.7472-2.3935-2.5245-4.5537-2.5079zm-8.0305 0.40101c-1.952 0-3.6281 2.5596-3.2277 4.9294 0.29009 1.717 1.0678 2.3343 3.8876 3.0856 3.169 0.84438 3.2468 0.83914 3.2468-0.20981 0-0.49803 0.24814-1.428 0.55139-2.0671 0.54986-1.1587 0.54703-1.1676-0.92604-3.1187-1.6009-2.1204-2.2736-2.6195-3.5321-2.6195zm8.0631 4.8829c-2.0032 0.0079704-2.658 0.34589-3.2608 1.6826-0.52888 1.1728-0.53107 1.4068-0.027389 2.8345 0.60872 1.7253 1.5632 2.9073 3.1383 3.8856 1.2727 0.79044 1.5469 0.8021 2.5378 0.108 1.0947-0.76674 1.8175-2.3261 1.8175-3.9202 0-1.1248-0.26233-1.6444-1.5048-2.9786-1.2293-1.3201-1.7245-1.6157-2.7006-1.6118zm6.2802 0.83199c-0.26516-0.0071105-0.54386 0.13165-1.0258 0.38086-0.95566 0.49418-1.0881 0.71559-0.9033 1.51 0.63643 2.7359 0.60376 3.374-0.25632 4.9754-0.90165 1.6788-0.86462 2.0302 0.28474 2.682 2.0398 1.1567 4.5423-0.1413 5.5971-2.9032 0.58444-1.5303 0.5804-1.5863-0.23771-3.176-0.45801-0.88999-1.4024-2.0792-2.0986-2.6427-0.70036-0.56685-1.0192-0.81716-1.3601-0.82631zm19.621 0.25942c0.21734 0.0017343 0.45925 0.013936 0.72295 0.039274 1.4765 0.14188 1.9323 0.36343 2.742 1.3333 0.58869 0.70517 0.97372 1.5805 0.97668 2.2221 0.010055 1.9942 0.35385 2.1207 3.005 1.1069 2.9772-1.1385 11.215-3.4368 11.719-3.2691 0.20513 0.068376-0.08495 0.30455-0.64492 0.52452-1.5366 0.60357-8.8068 3.3645-10.682 4.0566-0.90712 0.33486-2.0043 0.9039-2.4386 1.2645l-0.78962 0.65577 1.5059 1.3208c1.1949 1.0483 1.5446 1.6187 1.695 2.7611 0.10425 0.7918 0.050544 1.688-0.11937 1.9916-0.25465 0.45503-0.39069 0.36653-0.77618-0.50436-0.25722-0.58111-1.2482-1.6734-2.2019-2.4272-1.5506-1.2257-1.9403-1.371-3.685-1.371h-1.9513l1.1638-1.1322c1.3219-1.2859 2.434-3.4822 2.4453-4.8307 0.011793-1.4039-1.2242-2.7134-2.7988-2.9652-1.733-0.27711-1.4092-0.78884 0.11214-0.7767zm-55.558 0.67076c0.36427-0.010835 0.20438 0.28486-0.53175 0.86506-2.1011 1.656-1.9505 4.5825 0.34985 6.7929l1.4325 1.3761h-2.1084c-1.7883 0-2.3269 0.15846-3.5471 1.0423-1.5148 1.0973-2.0217 2.2161-1.6588 3.6618 0.27022 1.0766 0.062222 1.1077-0.64596 0.096635-0.78715-1.1238-0.64813-3.0251 0.33796-4.6261 1.2473-2.0251 1.1344-2.4484-0.79323-2.9766-1.8187-0.49835-7.3761-2.6448-9.8428-3.8018l-1.5679-0.73536 1.3937 0.18914c3.5839 0.48639 7.2319 1.3107 10.048 2.2707 1.6939 0.57734 3.2222 0.96104 3.3967 0.85318 0.17452-0.10786 0.31729-0.55508 0.31729-0.99426 0-1.6659 0.76424-3.0569 1.9523-3.5533 0.72292-0.30206 1.2179-0.45302 1.4671-0.46044zm23.174 2.4143c-0.91436 0-1.7462 0.2618-2.3575 0.74259-0.87838 0.69095-0.9274 0.86666-0.70125 2.511 0.31136 2.2639 1.6 4.2115 3.236 4.8907 1.5688 0.65129 1.7675 0.66303 3.1492 0.18138 2.4361-0.84922 2.3154-3.7494-0.27234-6.5495-1.4548-1.5742-1.8021-1.7761-3.0541-1.7761zm17.626 3.484c-0.31822 0-1.7115 2.5174-1.7115 3.0923 0 0.18295 0.78589 0.90961 1.7467 1.6149s2.1593 1.9855 2.6629 2.8448c0.86225 1.4713 0.89133 1.6685 0.50643 3.3884-0.22479 1.0045-0.96896 2.6777-1.6542 3.7181-2.3561 3.5776-3.2839 6.2736-2.744 7.9747 0.22509 0.70918 1.0207 0.90124 2.0671 0.49971 0.39356-0.15102 0.55087-0.67603 0.55087-1.8366 0-1.3993 0.242-1.9572 1.742-4.0147 0.95816-1.3143 1.7425-2.5355 1.7425-2.7135 0-0.17807 0.17069-0.21833 0.3793-0.0894 0.22496 0.13906 0.331 1.0299 0.26097 2.19-0.11102 1.8404-0.061287 1.9828 0.84181 2.419 1.1609 0.56074 1.6536 0.3176 1.6536-0.81597 0-1.0265 0.56306-1.1246 0.87178-0.15193 0.75594 2.3818 4.2916 4.5416 7.8388 4.7883 2.1618 0.15035 2.3102 0.1094 3.268-0.90175 1.5614-1.6484 1.0768-2.2988-1.5115-2.0283-3.7007 0.3868-6.2512-1.0714-7.8822-4.5067-0.46368-0.97666-0.84318-1.9177-0.84388-2.0908-0.002094-0.55324-2.099-5.4902-2.945-6.9345-0.44905-0.76653-1.3417-1.8536-1.9839-2.4154-0.64214-0.56177-1.9293-1.6984-2.8603-2.5259-0.93098-0.82757-1.8292-1.5048-1.9963-1.5048zm-32.436 14.626c-0.59813-0.003875-1.2133 0.11272-1.8397 0.35088-1.4307 0.54389-1.4317 1.2457-0.003617 2.4996 0.71045 0.62378 1.6756 1.7421 2.1446 2.4851l0.85318 1.3508 1.8061-0.23513c2.8707-0.37355 3.2055-1.5252 1.1922-4.1026-1.2068-1.5449-2.6242-2.3388-4.1527-2.3487zm-4.6307 2.7988c-0.74103 0.007908-1.4589 0.25055-2.0903 0.74724-0.81112 0.63803-0.92546 0.93389-0.75809 1.9653 0.29428 1.8134 1.7179 3.7073 3.4194 4.5496 2.8171 1.3944 4.0753 0.88098 4.376-1.7865 0.13128-1.1647-0.010869-1.7624-0.65267-2.7445-1.1634-1.7804-2.777-2.7473-4.2943-2.7311zm13.531 1.0568c-0.65353-0.002583-1.2063 0.1329-1.4376 0.42013-0.8401 1.0428-0.85257 2.6743-0.030489 4.0075 1.1233 1.8217 2.0931 2.9012 2.9094 3.2386 4.2585 1.76 5.2503-4.4775 1.1131-7.0001-0.70719-0.4312-1.7141-0.66279-2.5544-0.66611zm28.365 1.0532c-0.32479 0.001918-0.64129 0.047987-0.93948 0.14263-1.098 0.34849-1.9295 2.1652-1.4614 3.1926 0.33072 0.72587 0.28668 0.82269-0.37414 0.82269-1.2244 0-2.0204 0.99864-2.0552 2.5797l-0.031006 1.4268-0.33486-1.219c-0.31229-1.138-1.4074-2.4391-2.0531-2.4391-0.1557 0-0.76587 0.40564-1.3555 0.90175-0.78166 0.65772-1.0717 1.2004-1.0707 2.0035 0.002825 2.3908 2.4728 4.689 4.5496 4.2328 0.55872-0.12272 1.1015-0.36116 1.2056-0.52968 0.23151-0.37458 1.2123-0.040479 1.2123 0.4129 0 0.17952-0.1961 0.28761-0.43563 0.2403-0.23954-0.047338-0.95339 0.18868-1.586 0.52503-0.93304 0.49611-1.1065 0.75641-0.91932 1.3777 0.51057 1.6949 1.2752 2.9598 2.0009 3.3104 1.6437 0.79415 4.7837 0.15822 5.2152-1.0563 0.1775-0.49964-1.0265-3.0914-1.6221-3.4918-0.28148-0.18922-0.27198-0.33678 0.03359-0.53485 0.23211-0.15044 0.65649-0.83489 0.9431-1.5208 0.70395-1.6848 0.18455-3.5472-1.4671-5.2612-0.69244-0.71862-1.0465-1.3069-0.78652-1.3069 0.25996 0 1.0519 0.62717 1.7596 1.3937 1.7191 1.8622 3.0501 1.8502 4.0261-0.037207 0.44667-0.86378 0.45075-1.1559 0.029456-2.1642-0.72875-1.7441-2.7296-3.0117-4.4834-3.0014zm-34.153 2.1704c-0.41823 0.004477-0.75508 0.14877-1.2774 0.45734-0.88373 0.52203-1.0726 0.85387-1.0625 1.8666 0.006788 0.67731 0.2367 1.6231 0.51056 2.1022 0.71479 1.2504 0.64752 1.4017-0.51883 1.1684-0.67651-0.13531-1.3436-0.010265-1.9043 0.35708-1.1613 0.7609-1.2763 0.71754-0.8785-0.32866 0.18689-0.49156 0.33951-0.94058 0.33951-0.99787 0-0.057314-0.73551-0.38478-1.6345-0.72812-0.89902-0.34334-2.3096-1.2465-3.1347-2.0071-1.6755-1.5445-2.3094-1.4307-2.7316 0.49144-0.17762 0.8087-0.015285 1.3511 0.72295 2.4164 1.6499 2.3808 3.4142 3.1183 5.425 2.267 0.44197-0.1871 0.64877 0.085113 0.95912 1.2619 0.44469 1.6863 1.5278 3.056 3.2427 4.1016 2.1817 1.3301 4.8168 0.63388 4.8168-1.2728 0-0.45554-0.22828-1.3738-0.50694-2.0407l-0.50643-1.2128 0.98288 0.074931c1.2551 0.095636 2.7453-0.87556 3.0195-1.9678 0.24949-0.99406-0.95966-3.4186-2.2924-4.5966-0.47908-0.42348-1.5241-0.95431-2.3223-1.1798-0.54872-0.15497-0.92322-0.23603-1.2485-0.23254zm36.822 5.4715c-0.67441 0-0.84749 0.17991-0.84749 0.88212 0 0.48524-0.23552 1.4452-0.52297 2.1332-0.69064 1.6529-0.69161 1.6453 0.57206 3.0846l1.094 1.2464 0.81184-0.76274c1.0104-0.94923 1.6586-2.8333 1.3343-3.8778-0.46071-1.4836-1.5633-2.7058-2.4417-2.7058zm-7.3556 1.1085c0.061583-0.001849 0.15095 0.060509 0.27544 0.185 0.21318 0.21319 0.32773 0.56821 0.25425 0.78858-0.17316 0.51946-0.64182 0.050794-0.64182-0.64182 0-0.22061 0.032959-0.32939 0.11214-0.33176zm-23.328 1.0542c-0.21534 0.003107-0.43027 0.12127-0.75086 0.30437-1.1602 0.66262-1.0965 1.3623 0.30799 3.4008l1.0418 1.5126-1.4087 1.5286c-1.5302 1.6601-1.7624 2.8182-1.0144 5.0633 0.47145 1.415 2.4288 3.5549 3.9274 4.2943 1.3607 0.67135 1.5755 0.67344 1.8283 0.014469 0.11699-0.30484-0.33647-1.3499-1.0563-2.434-1.5478-2.3312-1.6749-3.9672-0.40618-5.2359 1.0423-1.0423 1.425-1.0518 4.7268-0.11834 1.943 0.54929 3.4706 0.72286 6.0043 0.68316l3.3988-0.053226 0.42013 0.97152c0.94846 2.1925 3.2463 4.2819 4.7093 4.2819 1.1126 0 2.5271-0.98377 2.927-2.0355 0.38169-1.0039-0.050854-1.4349-1.4485-1.4438-2.1374-0.012949-3.2684-2.0855-2.2102-4.0504 0.48624-0.90289 0.54421-1.4082 0.28319-2.465-0.41696-1.6882-1.4669-1.9263-2.9585-0.67128-1.3164 1.1076-2.8523 1.4372-6.6032 1.4165-4.4982-0.0248-7.4626-1.053-9.7379-3.3765-1.1556-1.1802-1.5691-1.5934-1.9802-1.5875zm9.7178 9.7488c-1.8523 0.01281-1.9587 0.36477-2.4856 3.4479-0.92203 5.3943-0.23447 8.2385 2.6432 10.938 0.91786 0.86095 1.7757 1.568 1.9063 1.571 0.49327 0.012247 1.7187-2.1101 1.6139-2.7952-0.087645-0.57294 0.34032-0.93664 2.1554-1.8314 1.91-0.94154 2.4422-1.4142 3.3972-3.0174 0.62281-1.0455 1.1322-2.0847 1.1322-2.3094 0-0.22477-0.45402-0.59685-1.0092-0.82682-0.83701-0.34671-1.2025-0.31834-2.1389 0.16588-0.88925 0.45986-1.3083 0.50218-1.9704 0.2005-1.0019-0.4565-1.9815-2.5966-1.7007-3.7155 0.31582-1.2583-0.53111-1.7888-2.9099-1.8226-0.23138-0.003281-0.44194-0.005976-0.63355-0.004651z" stroke-width=".34842"/>
</svg>